<svg preserveAspectRatio="xMidYMid meet" viewBox="0 0 1066.000000 336.000000" height="336.000000pt" width="1066.000000pt" xmlns="http://www.w3.org/2000/svg" version="1.0">

<g stroke="none" fill="#000000" transform="translate(0.000000,336.000000) scale(0.100000,-0.100000)">
<path d="M2260 3356 c0 -3 51 -91 114 -198 l115 -193 525 1 525 2 -15 -30 c-8
-16 -123 -221 -255 -455 -131 -234 -239 -427 -239 -429 0 -3 153 -261 718
-1211 l287 -483 269 0 c210 0 267 3 263 13 -3 6 -228 387 -501 845 -273 459
-496 837 -496 841 0 4 162 295 360 647 l359 639 -242 6 c-279 7 -1787 11
-1787 5z"></path>
<path d="M1779 3077 c-86 -149 -518 -897 -959 -1660 -441 -764 -804 -1395
-807 -1403 -4 -12 742 -14 5316 -14 4262 0 5321 2 5321 13 0 6 -28 59 -62 117
l-63 105 -4945 5 -4946 5 321 556 c176 306 327 566 335 578 15 21 28 14 954
-499 l939 -520 239 0 c193 0 239 3 236 13 -4 18 -1712 2976 -1718 2977 -3 0
-75 -123 -161 -273z m619 -1363 c250 -432 451 -788 449 -790 -3 -3 -349 104
-771 238 -625 198 -765 245 -761 258 10 26 620 1080 625 1080 3 0 209 -354
458 -786z"></path>
<path d="M6810 2062 c0 -4 107 -106 237 -227 500 -463 563 -525 563 -552 0
-24 -125 -845 -135 -890 l-5 -23 1066 0 c586 0 1064 4 1062 8 -1 5 -43 77 -93
160 l-90 152 -657 0 c-518 0 -658 3 -658 12 0 7 21 145 46 307 l46 295 -69 66
c-37 36 -159 150 -270 253 l-203 187 342 2 341 3 69 119 c37 66 68 123 68 128
0 4 -373 8 -830 8 -456 0 -830 -3 -830 -8z"></path>
<path d="M8790 2062 c0 -4 33 -61 73 -127 l74 -120 346 -3 345 -2 -143 -251
-143 -251 171 -282 c93 -154 217 -360 275 -456 58 -96 110 -181 116 -188 9 -9
74 -12 279 -10 l267 3 -284 468 -284 469 210 366 c116 202 213 373 215 380 4
9 -151 12 -756 12 -419 0 -761 -4 -761 -8z"></path>
<path d="M3912 2051 c1 -5 228 -387 503 -850 l500 -840 278 -1 c152 0 277 4
277 9 0 4 -225 386 -499 847 l-499 839 -282 3 c-165 1 -280 -1 -278 -7z"></path>
<path d="M4802 2038 c8 -13 237 -395 508 -850 l492 -828 663 0 663 0 6 27 c14
65 146 917 144 923 -4 7 -583 540 -721 663 l-99 87 -835 0 -835 0 14 -22z
m1633 -484 c179 -166 255 -243 255 -258 0 -11 -23 -164 -52 -339 l-52 -317
-195 2 -194 3 -339 568 c-186 313 -338 571 -338 573 0 2 148 4 330 4 l330 0
255 -236z"></path>
</g>
</svg>
